<svg xmlns="http://www.w3.org/2000/svg" fill="none" viewBox="0 0 20 20"><circle cx="9.649" cy="6.065" r="3.982" stroke="#2C2C2C" stroke-linecap="round" stroke-linejoin="round" stroke-width="1.5"/><path stroke="#2C2C2C" stroke-linecap="round" stroke-linejoin="round" stroke-width="1.5" d="M3.333 15.585c0-.28.062-.557.183-.81.382-.762 1.457-1.166 2.35-1.35a14 14 0 0 1 1.952-.274 20.873 20.873 0 0 1 3.654 0c.657.046 1.31.138 1.953.275.892.183 1.968.549 2.35 1.35.244.514.244 1.11 0 1.625-.382.8-1.458 1.167-2.35 1.342-.643.143-1.296.238-1.953.282-.99.084-1.983.1-2.975.046-.229 0-.45 0-.679-.046a12.852 12.852 0 0 1-1.945-.282c-.9-.175-1.968-.541-2.357-1.342a1.899 1.899 0 0 1-.183-.816Z" clip-rule="evenodd"/></svg>
