<svg xmlns="http://www.w3.org/2000/svg" fill="none" viewBox="0 0 98 98"><path fill="#64A30D" fill-rule="evenodd" d="M6.13 49a42.87 42.87 0 1 1 85.74 0 42.87 42.87 0 0 1-85.75 0Zm32.29 16.13a5.35 5.35 0 0 0 7.57 0l21.82-21.82a5.35 5.35 0 1 0-7.58-7.57L42.21 53.77l-4.45-4.45a5.36 5.36 0 0 0-7.58 7.59l8.24 8.22Z" clip-rule="evenodd"/><mask id="a" width="86" height="86" x="6" y="6" maskUnits="userSpaceOnUse" style="mask-type:luminance"><path fill="#fff" fill-rule="evenodd" d="M6.13 49a42.87 42.87 0 1 1 85.74 0 42.87 42.87 0 0 1-85.75 0Zm32.29 16.13a5.35 5.35 0 0 0 7.57 0l21.82-21.82a5.35 5.35 0 1 0-7.58-7.57L42.21 53.77l-4.45-4.45a5.36 5.36 0 0 0-7.58 7.59l8.24 8.22Z" clip-rule="evenodd"/></mask><g mask="url(#a)"><path fill="#64A30D" d="M41 41h16v16H41z"/></g></svg>
