<svg xmlns="http://www.w3.org/2000/svg" fill="none" viewBox="0 0 30 30"><path fill="#0155A5" d="M6.351 6.374c-.006.18-.009.364-.009.55a8628.432 8628.432 0 0 0 .009 8.962c0 .002.001.004.003.005a.013.013 0 0 0 .009.004h15.562a.023.023 0 0 1 .023.023v6.3a.02.02 0 0 1-.007.017.028.028 0 0 1-.018.006c-5.088.001-10.174.004-15.26.009-.097 0-.193.004-.289.01a.024.024 0 0 0-.016.009.031.031 0 0 0-.007.02L6.35 29.96a.035.035 0 0 1-.036.034H.036a.02.02 0 0 1-.013-.005.018.018 0 0 1-.006-.013c-.033-1.903.004-3.806-.001-5.71-.01-3.263-.01-6.527-.002-9.79.008-3.447-.024-6.51-.01-9.174C.011 3.542.014 1.78.012.019A.015.015 0 0 1 .027.005h29.93a.02.02 0 0 1 .01.002.022.022 0 0 1 .007.005.028.028 0 0 1 .007.018l-.001 6.255a.073.073 0 0 1-.017.047.053.053 0 0 1-.04.02H6.374a.024.024 0 0 0-.016.006.023.023 0 0 0-.007.016Z"/><path fill="#0155A5" d="M23.62 14.294c-4.703.008-9.404.011-14.106.008-.402 0-.924-.016-1.386-.013a.03.03 0 0 1-.01-.002.023.023 0 0 1-.013-.011.019.019 0 0 1-.001-.008v-6.28c0-.009.002-.017.006-.023a.021.021 0 0 1 .017-.01h21.83a.02.02 0 0 1 .016.008.028.028 0 0 1 .007.019v21.932a.082.082 0 0 1-.08.081H8.137a.032.032 0 0 1-.024-.013.055.055 0 0 1-.01-.033v-6.277a.02.02 0 0 1 .006-.015.025.025 0 0 1 .017-.006c5.161-.025 10.324-.015 15.486-.014a.02.02 0 0 0 .015-.007.025.025 0 0 0 .007-.016v-9.3a.024.024 0 0 0-.005-.014.014.014 0 0 0-.01-.006Z"/></svg>
