<svg xmlns="http://www.w3.org/2000/svg" fill="none" viewBox="0 0 24 24"><path fill="currentColor" d="M17.951 10.464a.768.768 0 0 0-1.104 0l-4.152 4.152V3.192a.799.799 0 0 0-.792-.792.799.799 0 0 0-.792.792v11.424l-4.127-4.152a.768.768 0 0 0-1.104 0 .768.768 0 0 0 0 1.104l5.496 5.496c.072.072.168.12.264.168.071.048.167.048.263.048a.639.639 0 0 0 .288-.072.991.991 0 0 0 .264-.168l5.496-5.496c.288-.264.288-.768 0-1.08Z"/><path fill="currentColor" d="M19.416 21.6H4.392a.799.799 0 0 1-.792-.792V15.72c0-.432.36-.792.792-.792.432 0 .792.36.792.792v4.32h13.44v-4.32c0-.432.36-.792.792-.792.432 0 .792.36.792.792v5.088c-.024.432-.36.792-.792.792Z"/></svg>
