<svg xmlns="http://www.w3.org/2000/svg" fill="none" viewBox="0 0 24 24"><path stroke="currentColor" stroke-linecap="round" stroke-linejoin="round" stroke-width="1.5" d="M17.595 10.932a2.902 2.902 0 1 0 0-5.803M18.929 14.085c.478.033.954.1 1.422.206.651.127 1.434.394 1.713.978.177.374.177.81 0 1.184-.278.584-1.062.85-1.713.984M6.29 10.932a2.902 2.902 0 1 1 0-5.803M4.956 14.085c-.479.033-.955.1-1.423.206-.65.127-1.434.394-1.711.978-.18.374-.18.81 0 1.184.276.584 1.06.85 1.711.984"/><path stroke="currentColor" stroke-linecap="round" stroke-linejoin="round" stroke-width="1.5" d="M11.938 14.71c3.246 0 6.02.49 6.02 2.457 0 1.965-2.755 2.475-6.02 2.475-3.248 0-6.021-.491-6.021-2.457 0-1.967 2.755-2.475 6.02-2.475ZM11.937 11.905a3.845 3.845 0 0 1-3.858-3.86 3.845 3.845 0 0 1 3.858-3.857 3.845 3.845 0 0 1 3.859 3.858 3.845 3.845 0 0 1-3.859 3.859Z" clip-rule="evenodd"/></svg>
