<svg xmlns="http://www.w3.org/2000/svg" fill="none" viewBox="0 0 24 24"><path stroke="currentColor" stroke-linecap="round" stroke-linejoin="round" stroke-width="1.5" d="M12.02 2C6.21 2 2 6.746 2 12.015c0 1.682.49 3.414 1.35 4.997.16.26.18.59.07.902l-.67 2.243c-.15.541.31.94.82.78l2.02-.6c.55-.18.98.05 1.49.361C8.54 21.558 10.36 22 12 22c4.96 0 10-3.836 10-10.015C22 6.656 17.7 2 12.02 2Z" clip-rule="evenodd"/><path fill="currentColor" d="M11.64 15.247a.385.385 0 0 1-.254-.085.368.368 0 0 1-.102-.272v-.68c.022-.487.13-.918.323-1.292.192-.374.425-.714.697-1.02.283-.306.566-.595.85-.867.283-.283.521-.567.714-.85.204-.284.329-.584.374-.901.045-.408-.034-.748-.238-1.02a1.91 1.91 0 0 0-.833-.646 2.788 2.788 0 0 0-1.088-.221c-.601 0-1.117.158-1.547.476-.42.306-.698.827-.834 1.564-.034.136-.09.232-.17.289a.456.456 0 0 1-.272.085h-.816a.406.406 0 0 1-.272-.102.368.368 0 0 1-.102-.272 3.377 3.377 0 0 1 1.122-2.431 4.07 4.07 0 0 1 1.275-.749 4.59 4.59 0 0 1 1.667-.289c.691 0 1.28.097 1.768.29.499.18.895.43 1.19.748a2.78 2.78 0 0 1 .833 2.142 3.068 3.068 0 0 1-.34 1.224c-.193.351-.425.68-.697.986-.272.295-.55.59-.833.884-.272.283-.51.584-.714.901-.193.306-.3.64-.323 1.003l-.034.374v.34a.532.532 0 0 1-.136.29c-.068.067-.165.101-.29.101h-.917Zm-.135 2.789a.429.429 0 0 1-.29-.103.429.429 0 0 1-.101-.288v-1.038c0-.113.034-.204.102-.272a.394.394 0 0 1 .289-.119h1.105a.36.36 0 0 1 .289.12.34.34 0 0 1 .119.271v1.038c0 .113-.04.21-.12.288-.067.069-.164.103-.288.103h-1.105Z"/></svg>
