<svg xmlns="http://www.w3.org/2000/svg" fill="none" viewBox="0 0 24 24"><path stroke="currentColor" stroke-linecap="round" stroke-linejoin="round" stroke-width="1.5" d="M21.524 9.753a8.311 8.311 0 0 0-7.964-6.975.714.714 0 0 0-.74.687v.064l.448 6.709c.029.452.417.795.87.769l6.727-.449a.714.714 0 0 0 .659-.769v-.036Z" clip-rule="evenodd"/><path stroke="currentColor" stroke-linecap="round" stroke-linejoin="round" stroke-width="1.5" d="M8.902 6.769a.915.915 0 0 1 1.043.522.824.824 0 0 1 .082.302c.092 1.3.284 4.146.394 5.684a1.043 1.043 0 0 0 1.117.97v0l5.647-.348a.916.916 0 0 1 .97.916v0A7.698 7.698 0 0 1 3.73 18.009a7.323 7.323 0 0 1-.915-2.8 4.723 4.723 0 0 1-.055-.916 7.707 7.707 0 0 1 6.132-7.524"/></svg>
